<svg version="1" xmlns="http://www.w3.org/2000/svg" width="1066.667" height="1066.667" viewBox="0 0 800.000000 800.000000"><path d="M0 400v400h800V0H0v400zm261.8-50.3L262 549h216.7l-.1 50c0 27.5-.3 50.1-.6 50.1-.3.1-71.1.3-157.5.4l-157 .1-.5-2.5c-.4-2-.5-483.7-.1-494.2l.1-2.5h49.3l49.2.1.3 199.2zm344.1-123.6c14.3 3.3 26 15 30 29.9 1.2 4.5 1.1 21.1-.1 25.6-2.8 10-11.7 21.2-20.1 25.6-12.2 6.2-30.4 6.4-42.2.6-14.1-7.1-22-20.5-22.4-37.9-.3-14 3.2-24 11.5-32.9 9.9-10.6 26.6-14.8 43.3-10.9zM634 498v151h-79V347h79v151z"/></svg>