<svg version="1" xmlns="http://www.w3.org/2000/svg" width="1066.667" height="1066.667" viewBox="0 0 800.000000 800.000000"><path d="M0 400v400h800V0H0v400zm245-270.1c.3 0 .4 97.1.4 215.6-.1 159.7.1 215.5 1 215.6.6.1 55.1.2 121.1.3l120 .1.3 54.5.2 54.5H134.5l-.3-269.5c-.1-148.2 0-270 .2-270.5.2-.7 19-1 55.2-.9 30.2.1 55.1.2 55.4.3zM632.5 212c21.7 6.2 34.1 24.2 33 48-.6 13.6-4.2 22.4-12.7 30.9-11.7 11.7-29.1 16.3-47.5 12.5-9.7-2-16.3-5.4-22.9-12-8.5-8.6-12.1-17-13-30.9-1.6-24 12.3-43.7 34.4-48.9 8.2-1.9 21.2-1.7 28.7.4zm29.3 294.2L662 670l-44-.1c-33.1 0-44-.3-44.1-1.2-.3-3.4-.4-324.4-.1-325.3.2-.7 14-1 44-1l43.7.1.3 163.7z"/></svg>