<svg version="1" xmlns="http://www.w3.org/2000/svg" width="1066.667" height="1066.667" viewBox="0 0 800.000000 800.000000"><path d="M0 400v400h800V0H0v400zm268.3-210.1c.4 0 .7 79.9.7 177.5v177.3l97.3.1c53.4 0 97.4.1 97.7.1 1.1.2.7 65-.4 65.4-.6.2-59.4.3-130.6.3l-129.5-.1-.3-209.9c-.1-127.5.2-210.2.7-210.5.8-.5 61.7-.7 64.4-.2zm308.8 43.6c6.6 2.2 14.1 9.1 16.9 15.7 2.6 6.1 3.4 17.7 1.6 23.6-5 16.4-21.2 25.3-38.7 21.2-7.2-1.7-10.1-3.3-14.9-8.1-6.5-6.5-8.9-13.4-8.5-24 .3-9.5 3.2-16.5 9.2-22 8.9-8.2 21.7-10.6 34.4-6.4zM593.5 475v135.5h-56l-.1-134.5c0-74 .1-135 .3-135.6.3-.7 9.5-1 28.1-1l27.7.1V475z"/></svg>